<svg xmlns="http://www.w3.org/2000/svg" viewBox="0 0 320 100" width="100%" height="100%">
  <defs>
    <linearGradient id="topGrad" x1="0%" y1="0%" x2="100%" y2="100%">
      <stop offset="0%" stop-color="#93C5FD" />
      <stop offset="100%" stop-color="#60A5FA" />
    </linearGradient>
    
    <linearGradient id="leftGrad" x1="0%" y1="0%" x2="0%" y2="100%">
      <stop offset="0%" stop-color="#3B82F6" />
      <stop offset="100%" stop-color="#1D4ED8" />
    </linearGradient>

    <linearGradient id="rightGrad" x1="0%" y1="0%" x2="100%" y2="100%">
      <stop offset="0%" stop-color="#1E40AF" />
      <stop offset="100%" stop-color="#1E3A8A" />
    </linearGradient>
  </defs>

  <g transform="translate(10, 10)">
    <polygon points="40,15 75,35 40,55 5,35" fill="url(#topGrad)" />
    
    <polygon points="5,35 40,55 40,95 5,75" fill="url(#leftGrad)" />
    
    <polygon points="40,55 75,35 75,75 40,95" fill="url(#rightGrad)" />

    <g stroke="#60A5FA" stroke-width="1.5" stroke-linejoin="round" fill="none">
      <line x1="40" y1="55" x2="75" y2="75" />
      <line x1="75" y1="35" x2="40" y2="95" />
      
      <line x1="40" y1="75" x2="75" y2="55" />
      <line x1="57.5" y1="45" x2="57.5" y2="85" />
    </g>

    <circle cx="40" cy="55" r="2.5" fill="#FFFFFF" />
    <circle cx="75" cy="35" r="2" fill="#93C5FD" />
    <circle cx="75" cy="75" r="2" fill="#93C5FD" />
    <circle cx="40" cy="95" r="2" fill="#93C5FD" />
    <circle cx="57.5" cy="65" r="2" fill="#FFFFFF" />
  </g>

  <g transform="translate(105, 62)">
    <text font-family="system-ui, -apple-system, sans-serif" font-size="32" font-weight="900" letter-spacing="-1">
      <tspan fill="#1E293B">STL</tspan>
      <tspan fill="#2563EB">Quote</tspan>
    </text>
    <text y="22" font-family="system-ui, -apple-system, sans-serif" font-size="12" font-weight="600" fill="#64748B" letter-spacing="1.5">
      3D PRINT CALCULATOR
    </text>
  </g>
</svg>
